<svg display="none" width="0" height="0" version="1.1" xmlns="http://www.w3.org/2000/svg">
<defs>
<symbol id="icon-shopping-bag" viewBox="0 0 1024 1024">
	<title>shopping-bag</title>
	<path class="path1" d="M927.795 167.475c-15.104-13.107-97.587-88.627-112.998-101.939-15.309-13.261-38.707-14.336-56.422-14.336h-492.749c-17.664 0-41.062 1.075-56.422 14.336-15.411 13.312-97.894 88.883-112.998 101.939-15.206 13.107-27.802 32.922-23.757 61.030 4.045 28.211 96.768 699.443 99.174 715.418 2.355 15.923 16.282 28.518 33.178 28.877h614.4c16.896-0.358 30.822-12.954 33.178-28.928 2.406-15.923 95.13-687.206 99.226-715.418 3.994-28.058-8.602-47.872-23.808-60.979zM512 613.018c-166.298 0-201.882-235.315-209.254-283.802h94.054c14.131 70.707 46.285 191.693 115.2 191.693s101.12-120.986 115.2-191.693h94.106c-7.424 48.486-43.008 283.802-209.306 283.802zM162.304 205.107l93.696-102.707h512l93.696 102.707h-699.392z"></path>
</symbol>
<symbol id="icon-search" viewBox="0 0 1024 1024">
	<title>search</title>
	<path fill="#444444" class="path1" d="M398.878 170.667c124.75 0 226.251 102.084 226.251 227.556 0 47.25-14.5 92.736-41.945 131.527l-22.277 31.46-31.278 22.375c-38.555 27.611-83.778 42.194-130.75 42.194-124.779 0-226.251-102.084-226.251-227.556s101.474-227.556 226.251-227.556zM398.878 56.889c-187.444 0-339.388 152.82-339.388 341.333s151.945 341.333 339.388 341.333c73.25 0 140.889-23.57 196.334-63.264l272.555 274.124c11.083 11.14 25.584 16.695 40.084 16.695s28.999-5.556 40.055-16.695c22.139-22.254 22.139-58.332 0-80.583l-272.555-274.124c39.472-55.778 62.889-123.819 62.889-197.486 0-188.514-151.945-341.333-339.362-341.333v0z"></path>
</symbol>
<symbol id="icon-facebook" viewBox="0 0 1024 1024">
	<title>facebook</title>
	<path class="path1" d="M870.4 51.2h-716.8c-56.32 0-102.4 46.080-102.4 102.4v716.8c0 56.371 46.080 102.4 102.4 102.4h358.4v-358.4h-102.4v-126.72h102.4v-104.96c0-110.797 62.054-188.621 192.819-188.621l92.314 0.102v133.376h-61.286c-50.893 0-70.246 38.195-70.246 73.626v86.528h131.482l-29.082 126.669h-102.4v358.4h204.8c56.32 0 102.4-46.029 102.4-102.4v-716.8c0-56.32-46.080-102.4-102.4-102.4z"></path>
</symbol>
<symbol id="icon-twitter" viewBox="0 0 1024 1024">
	<title>twitter</title>
	<path class="path1" d="M886.579 319.795c0.41 8.294 0.563 16.691 0.563 24.986 0 255.488-194.406 549.99-549.888 549.99-109.21 0-210.739-32-296.294-86.886 15.155 1.792 30.515 2.714 46.080 2.714 90.624 0 173.926-30.925 240.026-82.688-84.531-1.587-155.955-57.395-180.531-134.195 11.776 2.202 23.91 3.379 36.352 3.379 17.664 0 34.765-2.304 50.944-6.707-88.422-17.818-155.034-95.898-155.034-189.594 0-0.819 0-1.587 0-2.406 26.061 14.49 55.91 23.194 87.552 24.218-51.866-34.714-86.016-93.798-86.016-160.922 0-35.379 9.523-68.608 26.214-97.178 95.283 116.992 237.773 193.894 398.387 201.984-3.277-14.182-4.966-28.877-4.966-44.083 0-106.701 86.477-193.178 193.229-193.178 55.603 0 105.83 23.398 141.107 60.979 43.981-8.704 85.35-24.781 122.726-46.899-14.438 45.107-45.107 82.995-84.992 106.906 39.117-4.71 76.288-15.002 111.002-30.413-25.907 38.81-58.675 72.806-96.461 99.994z"></path>
</symbol>
<symbol id="icon-instagram" viewBox="0 0 1024 1024">
	<title>instagram</title>
	<path class="path1" d="M870.4 51.2h-716.8c-56.32 0-102.4 46.080-102.4 102.4v716.8c0 56.371 46.080 102.4 102.4 102.4h716.8c56.32 0 102.4-46.029 102.4-102.4v-716.8c0-56.32-46.080-102.4-102.4-102.4zM511.181 794.778c156.621 0 283.546-127.027 283.546-283.597 0-17.306-2.202-33.997-5.274-50.381h80.947v369.459c0 19.558-15.872 35.328-35.482 35.328h-645.837c-19.61 0-35.482-15.77-35.482-35.328v-369.459h79.309c-3.123 16.384-5.325 33.075-5.325 50.381 0 156.621 127.027 283.597 283.597 283.597zM333.978 511.181c0-97.894 79.36-177.203 177.254-177.203 97.843 0 177.254 79.309 177.254 177.203s-79.411 177.254-177.254 177.254c-97.946 0-177.254-79.36-177.254-177.254zM834.918 307.2h-82.688c-19.558 0-35.43-15.974-35.43-35.43v-82.79c0-19.558 15.872-35.379 35.379-35.379h82.688c19.661 0 35.533 15.821 35.533 35.379v82.739c0 19.507-15.872 35.482-35.482 35.482z"></path>
</symbol>
</defs>
</svg>
